<svg width="248" height="153" viewBox="0 0 248 153" fill="none" xmlns="http://www.w3.org/2000/svg">
<path fill-rule="evenodd" clip-rule="evenodd" d="M152.195 2.68287C142.125 8.18112 138.641 20.5249 144.461 30.1013L207.826 134.495C213.646 144.072 226.625 147.385 236.694 141.851C246.764 136.352 250.248 123.972 244.428 114.432L181.063 10.0017C175.244 0.461721 162.264 -2.8518 152.195 2.68287Z" fill="white"/>
<path fill-rule="evenodd" clip-rule="evenodd" d="M97.3293 32.7953C87.2598 38.33 83.7756 50.6738 89.5953 60.2502L121.259 112.429C127.078 122.005 140.058 125.319 150.127 119.784C160.197 114.286 163.681 101.906 157.861 92.3658L126.16 40.1506C120.378 30.5742 107.361 27.2607 97.3293 32.7953Z" fill="white"/>
<path fill-rule="evenodd" clip-rule="evenodd" d="M10.7238 10.7297C0.692619 16.2644 -2.7915 28.6081 2.98985 38.1846L66.3933 142.579C72.1747 152.155 85.1923 155.469 95.2235 149.934C105.293 144.399 108.777 132.055 102.958 122.479L39.5923 18.085C33.7727 8.50855 20.7934 5.23144 10.7238 10.7297Z" fill="white"/>
</svg>
